Coordinates
version=1
nRows=16
nColumns=40
inDegrees=yes

Units are S.I. units (second, meters, Newtons, ...)
Angles are in degrees.

endheader
time	pelvis_tilt	pelvis_list	pelvis_rotation	pelvis_tx	pelvis_ty	pelvis_tz	hip_flexion_r	hip_adduction_r	hip_rotation_r	knee_angle_r	knee_angle_r_beta	ankle_angle_r	subtalar_angle_r	mtp_angle_r	hip_flexion_l	hip_adduction_l	hip_rotation_l	knee_angle_l	knee_angle_l_beta	ankle_angle_l	subtalar_angle_l	mtp_angle_l	lumbar_extension	lumbar_bending	lumbar_rotation	arm_flex_r	arm_add_r	arm_rot_r	elbow_flex_r	pro_sup_r	wrist_flex_r	wrist_dev_r	arm_flex_l	arm_add_l	arm_rot_l	elbow_flex_l	pro_sup_l	wrist_flex_l	wrist_dev_l
      9.02500000	     -6.19499718	     -3.96775536	     -8.36676149	      0.94769200	      0.92252342	      0.50174643	     22.89698554	      2.88330222	     -8.21499511	     20.06126982	     20.06126982	      4.14910743	     -2.10251561	     -4.05069461	     -2.18283834	     -6.89968862	    -13.26625039	     19.83958365	     19.83958365	     20.01325215	     -2.08115095	     -2.04452172	     -9.32512039	      8.09754507	     -0.76121087	    -11.26904808	    -13.60078944	    -19.92787015	     31.98391872	     46.31307339	      0.00000000	      0.00000000	     33.52528116	    -21.46335306	    -12.41037974	     74.64291429	     48.18420063	      0.00000000	      0.00000000
      9.04600000	     -6.24342525	     -4.03418229	     -7.76353641	      0.94962085	      0.92332295	      0.50716829	     22.42110330	      3.10077038	     -8.64968294	     20.33261625	     20.33261625	      5.55012213	     -2.04115778	     -1.78276659	     -1.68066540	     -7.76837483	    -13.16651343	     21.54539535	     21.54539535	     18.49708692	     -1.98049722	     -5.07196713	     -9.23977599	      7.98567306	     -0.23348490	    -12.61320053	    -14.08727285	    -19.16441089	     35.55973964	     46.09826632	      0.00000000	      0.00000000	     33.49394332	    -20.18921280	    -12.11594438	     72.50977275	     48.10970007	      0.00000000	      0.00000000
      9.06700000	     -6.24482582	     -4.01369889	     -7.12169988	      0.95130118	      0.92413112	      0.51232514	     21.84097152	      3.17734451	     -9.27912939	     20.40716299	     20.40716299	      6.29427897	     -1.86844728	     -1.40631473	     -0.83485498	     -8.43301113	    -12.32061556	     23.81499621	     23.81499621	     16.78559324	     -3.28685596	     -7.54798676	     -9.17795393	      7.73919404	     -0.26083328	    -12.73452511	    -14.66224675	    -18.51720851	     36.99454798	     46.00004499	      0.00000000	      0.00000000	     32.71638190	    -19.52273685	    -11.57406544	     70.97420721	     48.02216049	      0.00000000	      0.00000000
      9.08800000	     -6.18198333	     -4.05226948	     -6.47275451	      0.95275499	      0.92496017	      0.51734986	     21.10571004	      3.34126515	     -9.87468231	     20.27650954	     20.27650954	      6.79612716	     -1.82570817	     -1.48946697	      0.43364591	     -9.25634482	    -11.51443077	     27.03062748	     27.03062748	     15.76697510	     -4.27276427	     -8.21152743	     -9.20933313	      7.52431229	     -0.43684834	    -12.23207265	    -15.18223594	    -18.56286351	     37.42774440	     45.99025231	      0.00000000	      0.00000000	     31.45198435	    -18.88658591	    -11.32679386	     69.99361826	     47.97683384	      0.00000000	      0.00000000
      9.10900000	     -6.09574937	     -4.09489219	     -5.80710211	      0.95392104	      0.92567978	      0.52207535	     20.37030404	      3.48954906	    -10.51909626	     20.16079483	     20.16079483	      7.31023527	     -1.71884093	     -1.55851073	      2.06796505	    -10.04736837	    -10.48367573	     30.80511749	     30.80511749	     14.47014864	     -5.71867678	     -8.94369556	     -9.24662432	      7.33391538	     -0.64286827	    -11.62349293	    -15.73206225	    -18.59486528	     37.98402422	     45.97550136	      0.00000000	      0.00000000	     30.05443618	    -18.20733950	    -11.04163032	     68.60275160	     47.92131054	      0.00000000	      0.00000000
      9.13000000	     -5.97790872	     -4.14783225	     -5.13128396	      0.95479734	      0.92622292	      0.52646567	     19.63304179	      3.63686294	    -11.16574760	     20.06143307	     20.06143307	      7.85114628	     -1.58862575	     -1.62466374	      4.01578247	    -10.74627535	     -9.19957574	     35.01675665	     35.01675665	     12.96518843	     -7.59291800	     -9.49718179	     -9.26714976	      7.20812079	     -0.82442155	    -10.89741167	    -16.31040000	    -18.61182420	     38.57940747	     45.95924927	      0.00000000	      0.00000000	     28.54025662	    -17.46241464	    -10.68224495	     66.86941974	     47.85431704	      0.00000000	      0.00000000
      9.15100000	     -5.85172874	     -4.23502733	     -4.44419946	      0.95534005	      0.92659815	      0.53048294	     18.92541406	      3.80807778	    -11.80645566	     19.98858778	     19.98858778	      8.40198148	     -1.47282106	     -1.68602382	      6.24614440	    -11.32877174	     -7.70155821	     39.49399112	     39.49399112	     11.31046071	     -9.85525889	     -9.61737587	     -9.29610827	      7.11856600	     -0.99201543	    -10.03490135	    -16.91585111	    -18.61266955	     39.15968041	     45.94375701	      0.00000000	      0.00000000	     26.91313459	    -16.66676138	    -10.22385168	     64.73933749	     47.77328939	      0.00000000	      0.00000000
      9.17200000	     -5.70561174	     -4.16705365	     -3.79287378	      0.95556571	      0.92687720	      0.53402385	     18.33373249	      3.75556659	    -12.50150489	     20.13890300	     20.13890300	      9.19571177	     -1.10602320	     -1.28931959	      8.66551881	    -11.40651676	     -5.86203996	     44.05388684	     44.05388684	     10.04417843	    -12.60946620	     -7.77502614	     -9.19049018	      6.84859563	     -0.51518435	     -9.62179483	    -17.61875357	    -18.16026665	     39.79956958	     45.89963614	      0.00000000	      0.00000000	     26.72929156	    -15.35036916	     -8.75372738	     58.84547878	     47.56545173	      0.00000000	      0.00000000
      9.19300000	     -5.40206238	     -4.43346775	     -3.16001686	      0.95569367	      0.92701275	      0.53750402	     17.45588051	      4.15678929	    -12.94987343	     20.03908489	     20.03908489	      9.75866540	     -1.22812510	     -1.39390247	     10.99519838	    -11.93776779	     -4.44462569	     48.51943165	     48.51943165	      8.72315394	    -14.53574432	     -7.00294147	     -9.39626375	      6.93456051	     -0.55361393	     -8.38767864	    -18.21751254	    -18.30426679	     40.21569510	     45.90106066	      0.00000000	      0.00000000	     24.64748787	    -14.49033644	     -8.20927244	     57.08799409	     47.47917570	      0.00000000	      0.00000000
      9.21400000	     -5.12667089	     -4.45738863	     -2.54760424	      0.95553230	      0.92714983	      0.54049325	     16.75456214	      4.26969527	    -13.32352447	     20.15751105	     20.15751105	     10.37274958	     -1.40753363	     -1.39442446	     13.61119947	    -11.89936412	     -2.84958095	     53.11752600	     53.11752600	     10.01341712	    -15.42583225	      0.59740996	     -9.38595024	      6.77510551	     -0.40716209	     -6.49379446	    -18.71093919	    -18.35686084	     38.85883304	     45.97181041	      0.00000000	      0.00000000	     23.83937135	    -13.59746424	     -6.41482756	     51.34350983	     47.24901620	      0.00000000	      0.00000000
      9.23500000	     -4.82481868	     -4.73179866	     -1.96065820	      0.95526942	      0.92697062	      0.54342034	     15.96027319	      4.71247675	    -13.58610812	     20.11508700	     20.11508700	     10.91668365	     -1.77166167	     -1.49269724	     15.95273325	    -12.18996485	     -1.59011683	     56.70641074	     56.70641074	      9.12042816	    -17.07643750	      1.76054711	     -9.53755434	      6.87766299	     -0.49682013	     -4.86636530	    -19.12162250	    -18.50953987	     39.24732934	     45.97688361	      0.00000000	      0.00000000	     21.47444790	    -12.83695513	     -5.84441718	     49.26386878	     47.15176935	      0.00000000	      0.00000000
      9.25600000	     -4.38281755	     -4.86850165	     -1.47158270	      0.95487659	      0.92690866	      0.54611348	     15.15896782	      5.03156424	    -13.55100581	     20.30598224	     20.30598224	     11.49145179	     -2.46101873	     -1.57148175	     18.21448117	    -12.21370719	     -0.48892109	     60.05945513	     60.05945513	     10.84042761	    -17.63982426	      8.76788000	     -9.68067239	      6.77714397	     -0.34193004	     -2.11643199	    -19.43879094	    -18.47020033	     37.00379608	     46.08162756	      0.00000000	      0.00000000	     20.27283197	    -11.92005883	     -4.10487956	     43.71262001	     46.92345487	      0.00000000	      0.00000000
      9.27700000	     -3.91008681	     -5.08663411	     -0.99785029	      0.95441306	      0.92658170	      0.54873711	     14.37853802	      5.46311542	    -13.41850720	     20.56954172	     20.56954172	     12.08100431	     -3.31511187	     -1.62162575	     20.18275546	    -12.45574550	      0.26499058	     62.35643258	     62.35643258	     11.16971141	    -18.45790352	     10.97852398	     -9.94596367	      6.77301966	     -0.62024904	      0.35805910	    -19.48922064	    -18.59489312	     37.04961107	     46.10311133	      0.00000000	      0.00000000	     17.85732239	    -11.32219067	     -3.23352395	     40.60719813	     46.78218967	      0.00000000	      0.00000000
      9.29800000	     -3.43190353	     -5.33965459	     -0.54072961	      0.95375610	      0.92600139	      0.55120876	     13.67082448	      5.95561700	    -13.18078211	     20.93402828	     20.93402828	     12.70135738	     -4.37423052	     -1.58957735	     22.12206524	    -12.72842288	      0.92163136	     64.07073453	     64.07073453	     12.49683326	    -18.89069278	     14.86277144	    -10.20358023	      6.75336133	     -0.41348541	      3.02643431	    -19.54176237	    -18.51560178	     35.74229286	     46.16763614	      0.00000000	      0.00000000	     16.02792415	    -10.43312008	     -1.91904014	     36.57955799	     46.58926158	      0.00000000	      0.00000000
      9.31900000	     -3.00536999	     -5.57886541	     -0.10249394	      0.95292388	      0.92510952	      0.55353985	     13.11027830	      6.41341574	    -12.96840987	     21.43479079	     21.43479079	     13.35027990	     -5.36944957	     -1.51101248	     23.97207627	    -13.03781180	      1.38902615	     64.97228823	     64.97228823	     13.73657853	    -19.16145511	     17.73718678	    -10.42057374	      6.71051047	     -0.17002090	      5.60589482	    -19.49444940	    -18.48245789	     34.98665597	     46.21117115	      0.00000000	      0.00000000	     13.91559218	     -9.60701346	     -0.72941157	     33.27041715	     46.39999109	      0.00000000	      0.00000000
      9.34000000	     -2.57858762	     -5.77108838	      0.33743866	      0.95195154	      0.92388256	      0.55570792	     12.70514151	      6.80110194	    -12.72226538	     22.20108965	     22.20108965	     14.02974488	     -6.51092577	     -1.57283589	     25.58331601	    -13.34476491	      1.64762239	     64.98154374	     64.98154374	     14.53802270	    -19.35511488	     18.55571563	    -10.69371323	      6.59736153	     -0.21577123	      8.03851939	    -19.14580461	    -18.44554974	     35.77723585	     46.19204760	      0.00000000	      0.00000000	     11.31357999	     -8.98171238	     -0.12947478	     31.03656374	     46.27391184	      0.00000000	      0.00000000
